<?xml version="1.0" standalone="no"?><!DOCTYPE svg PUBLIC "-//W3C//DTD SVG 1.1//EN" "http://www.w3.org/Graphics/SVG/1.1/DTD/svg11.dtd"><svg t="1579238012577" class="icon" viewBox="0 0 1024 1024" version="1.1" xmlns="http://www.w3.org/2000/svg" p-id="881" xmlns:xlink="http://www.w3.org/1999/xlink" width="200" height="200"><defs><style type="text/css"></style></defs><path d="M831.99253333 1024l-639.9872 0c-70.70826667 0-127.9872-57.32906667-127.9872-127.9872l0-639.98826667c0-70.70826667 57.27893333-128.03733333 127.9872-128.03733333l95.9776 0 0-63.97013333 86.21653334 0c27.6992-38.10346667 78.73386667-64.01813333 137.7984-64.01813334s110.10133333 25.91466667 137.79946666 64.01813334l86.16746667 0 0 63.97013333 96.02666667 0c70.6592 0 127.98826667 57.32906667 127.98826666 128.03733333l0 639.98826667c0.00106667 70.65813333-57.328 127.9872-127.9872 127.9872l0 0zM671.9968 127.98826667l-71.10506667 0c0-35.33013333-39.78773333-63.97013333-88.8928-63.97013334-49.104 0-88.8928 28.64-88.8928 63.97013334l-71.10293333 0 0 128.03733333 319.9936 0 0-128.03733333zM895.9616 256.02453333c0-35.3792-28.64-64.01813333-63.96906667-64.01813333l-96.02666666 0 0 127.9872-447.9808 0 0-127.9872-95.9776 0c-35.32906667 0-64.0192 28.64-64.0192 64.01813333l0 639.98826667c0 35.328 28.6912 63.968 64.0192 63.968l639.9872 0c35.32906667 0 63.96906667-28.64 63.96906666-63.968l0-639.98826667-0.00106666 0zM735.96586667 831.99253333l-447.9808 0c-17.63946667 0-31.96053333-14.32-31.96053334-32.00853333 0-17.6896 14.32-32.0096 31.96053334-32.0096l447.9808 0c17.68853333 0 32.00853333 14.32 32.00853333 32.0096-0.00106667 17.68853333-14.32106667 32.00853333-32.00853333 32.00853333l0 0zM735.96586667 671.99573333l-447.9808 0c-17.63946667 0-31.96053333-14.32-31.96053334-32.00853333 0-17.63946667 14.32-32.00853333 31.96053334-32.00853333l447.9808 0c17.68853333 0 32.00853333 14.36906667 32.00853333 32.00853333-0.00106667 17.6896-14.32106667 32.00853333-32.00853333 32.00853333l0 0zM735.96586667 512l-447.9808 0c-17.63946667 0-31.96053333-14.32-31.96053334-32.0096s14.32-32.0096 31.96053334-32.0096l447.9808 0c17.68853333 0 32.00853333 14.32 32.00853333 32.0096s-14.32106667 32.0096-32.00853333 32.0096l0 0z" p-id="882"></path></svg>