<?xml version="1.0" standalone="no"?><!DOCTYPE svg PUBLIC "-//W3C//DTD SVG 1.1//EN" "http://www.w3.org/Graphics/SVG/1.1/DTD/svg11.dtd"><svg t="1579238046630" class="icon" viewBox="0 0 1024 1024" version="1.1" xmlns="http://www.w3.org/2000/svg" p-id="1300" xmlns:xlink="http://www.w3.org/1999/xlink" width="200" height="200"><defs><style type="text/css"></style></defs><path d="M512 962a29.4 29.4 0 0 1-22.8-10.8L348.2 782H62A30 30 0 0 1 32 752V92A30 30 0 0 1 62 62h900a30 30 0 0 1 30 30v660a30 30 0 0 1-30 30h-286.2l-141 169.2a29.4 29.4 0 0 1-22.8 10.8z m-420-240h270a29.4 29.4 0 0 1 22.8 10.8L512 885.2l127.2-152.4a29.4 29.4 0 0 1 22.8-10.8H932v-600H92z" p-id="1301"></path><path d="M782 362h-540a30 30 0 0 1 0-60h540a30 30 0 0 1 0 60zM782 542h-540a30 30 0 0 1 0-60h540a30 30 0 0 1 0 60z" p-id="1302"></path></svg>