<?xml version="1.0" standalone="no"?><!DOCTYPE svg PUBLIC "-//W3C//DTD SVG 1.1//EN" "http://www.w3.org/Graphics/SVG/1.1/DTD/svg11.dtd"><svg t="1579238024014" class="icon" viewBox="0 0 1025 1024" version="1.1" xmlns="http://www.w3.org/2000/svg" p-id="1023" xmlns:xlink="http://www.w3.org/1999/xlink" width="200.1953125" height="200"><defs><style type="text/css"></style></defs><path d="M913.728 86.656H112.704c-61.44 0-111.36 51.904-111.36 115.712v621.76c0 63.872 49.984 115.776 111.36 115.776h801.088c61.568 0 111.552-51.904 111.552-115.776V202.368c0-63.808-50.048-115.712-111.616-115.712z m52.928 737.472a54.016 54.016 0 0 1-52.928 54.912H112.704c-29.056 0-52.8-24.64-52.8-54.848V202.368c0-30.336 23.68-54.784 52.8-54.784h801.088c29.184 0 52.928 24.512 52.928 54.784v621.76z m-94.08-512.96H544.192a29.696 29.696 0 0 0-29.312 30.208c0 16.896 12.992 30.464 29.312 30.464h328.384a29.76 29.76 0 0 0 29.184-30.464 30.016 30.016 0 0 0-8.32-21.184 29.888 29.888 0 0 0-20.864-9.024z m0 155.2H544.192a29.632 29.632 0 0 0-29.312 30.272 29.632 29.632 0 0 0 29.312 30.4h328.384a29.952 29.952 0 0 0 29.184-30.4 29.76 29.76 0 0 0-29.184-30.272z m0 148.16H595.52a29.952 29.952 0 0 0-29.312 30.4 29.632 29.632 0 0 0 29.312 30.4h277.056c16 0 29.184-13.632 29.184-30.4s-13.056-30.4-29.184-30.4zM419.904 547.904a160.128 160.128 0 0 0 54.912-121.6c0-87.168-68.288-158.08-152.32-158.08s-152.384 70.848-152.384 158.08c0 48.832 21.504 92.608 55.04 121.6-59.328 28.096-106.176 81.728-126.72 150.336a30.848 30.848 0 0 0 19.264 38.144 29.44 29.44 0 0 0 36.8-19.968c23.04-77.568 90.688-129.664 168.064-129.664s145.024 52.032 168.192 129.6a29.568 29.568 0 0 0 27.968 21.376 30.848 30.848 0 0 0 8.704-1.344 30.592 30.592 0 0 0 19.328-38.144C526.144 629.632 479.296 576 419.904 547.904z m-97.344-24.32c-51.712 0-93.632-43.648-93.632-97.344 0-53.632 41.984-97.28 93.632-97.28 51.712 0 93.76 43.648 93.76 97.28S374.208 523.584 322.56 523.584z m0 0" p-id="1024"></path></svg>